<?xml version="1.0" encoding="UTF-8"?>
<!DOCTYPE svg PUBLIC "-//W3C//DTD SVG 1.1//EN" "http://www.w3.org/Graphics/SVG/1.1/DTD/svg11.dtd">
<!-- Creator: CorelDRAW -->
<svg xmlns="http://www.w3.org/2000/svg" xml:space="preserve" width="304.269mm" height="166.025mm" version="1.1" style="shape-rendering:geometricPrecision; text-rendering:geometricPrecision; image-rendering:optimizeQuality; fill-rule:evenodd; clip-rule:evenodd"
viewBox="0 0 30426.78 16602.38"
 xmlns:xlink="http://www.w3.org/1999/xlink"
 xmlns:xodm="http://www.corel.com/coreldraw/odm/2003">
 <defs>
  <style type="text/css">
   <![CDATA[
    .fil2 {fill:none;fill-rule:nonzero}
    .fil11 {fill:#007BFF;fill-rule:nonzero}
    .fil10 {fill:#3F3D56;fill-rule:nonzero}
    .fil1 {fill:#454B69;fill-rule:nonzero}
    .fil7 {fill:#89AB32;fill-rule:nonzero}
    .fil13 {fill:#939498;fill-rule:nonzero}
    .fil12 {fill:#9C9CA1;fill-rule:nonzero}
    .fil9 {fill:#A0BB58;fill-rule:nonzero}
    .fil5 {fill:#EFB7B9;fill-rule:nonzero}
    .fil6 {fill:white;fill-rule:nonzero}
    .fil8 {fill:black;fill-rule:nonzero;fill-opacity:0.011765}
    .fil4 {fill:black;fill-rule:nonzero;fill-opacity:0.101961}
    .fil0 {fill:#89AB32;fill-rule:nonzero;fill-opacity:0.101961}
    .fil3 {fill:black;fill-rule:nonzero;fill-opacity:0.400000}
   ]]>
  </style>
 </defs>
 <g id="Capa_x0020_1">
  <metadata id="CorelCorpID_0Corel-Layer"/>
  <path class="fil0" d="M30104.4 15402.49c-117.76,290.9 -263.92,571.05 -434.45,834.75 -79.43,125.91 -168.05,246.99 -262.82,361.94 -0.75,1.17 -1.73,2.24 -2.82,3.18l-29404.32 0.02 3.97 -3.18c26.46,-20.64 181.77,-146.31 423.33,-361.69 173.3,-154.25 390.79,-354.81 635,-596.11 1997.33,-1964.52 5834.03,-6614.55 2638.68,-10874.33 -2970.47,-3960 227.81,-4678.61 2337.58,-4762.48 77.02,-3.13 157.97,-4.6 235.97,-4.6 731.45,0 1457.74,133.19 2141.36,392.95 974.73,370.42 2756.15,938.21 5077.06,1198.55 76.2,8.47 152.93,16.93 230.72,24.61 745.73,76.69 1500.12,114.68 2251.82,114.68 480.33,0 968.8,-16.28 1446.41,-46.14l0.3 -1c36.25,-2.12 72.76,-4.76 109.54,-7.41 1216.08,-82.85 2431.5,-276.03 3617.39,-560.43 76.99,-18.79 152.93,-36.51 228.6,-54.24 3958.94,-915.99 7608.58,2205.82 6696.05,5733.76 -337.34,1304.92 -251.62,2695.83 873.13,3821.09 1841.45,1837.57 1618.41,3646.51 1157.5,4786.07z"/>
  <path class="fil1" d="M30104.4 15402.49c-117.76,290.9 -263.92,571.05 -434.45,834.75 -79.43,125.91 -168.05,246.99 -262.82,361.94l-29403.17 0.02c26.46,-20.64 181.77,-146.31 423.33,-361.69 173.3,-154.25 390.79,-354.81 635,-596.11l3099.04 -640.29c39.99,-8.25 80.85,-12.45 121.7,-12.45l3303.83 -4.76 3.45 0.02 1636.44 -2.12 3.71 0.01 1381.12 -1.59 904.08 0 -0.01 0 926.04 0 3794.63 -5.29 6.09 0 293.95 0 516.47 0 644.79 0 171.45 0 651.67 -7.41 215.37 0 1895.47 -2.65 605.37 0 -0.01 0 291.04 0 0.01 0 2189.42 -2.91 651.93 0 2073.79 -2.91 1750.47 -2.12c48.75,-0.02 97.38,5.81 144.72,17.18l1766.09 428.38z"/>
  <path class="fil2" d="M427.3 16237.52l29242.93 0c-79.7,125.63 -168.32,246.71 -263.09,361.66l-29403.17 0.02c25.93,-21.96 181.24,-147.63 423.33,-361.68z"/>
  <path class="fil3" d="M427.3 16237.52l29242.93 0c-79.7,125.63 -168.32,246.71 -263.09,361.66l-29403.17 0.02c25.93,-21.96 181.24,-147.63 423.33,-361.68z"/>
  <path class="fil1" d="M19399.68 8009.02l-58.74 11.38 -2655.35 510.11c-771.26,148.17 -1553.62,297.13 -2337.05,240.24 -567.53,-41.28 -1097.75,-209.55 -1643.05,-357.19 -308.24,-83.61 -635,-116.95 -739.51,-461.96 -144.2,-476.25 90.49,-1181.35 145.79,-1663.95 52.92,-473.6 84.14,-959.11 -10.05,-1427.15 -20.62,-104.96 -48.81,-209.03 -82.57,-310.64 -94.46,-280.19 -242.89,-571.5 -162.72,-855.93 63.24,-225.69 256.12,-386.82 436.56,-536.05 353.48,-291.04 714.38,-617.27 854.6,-1053.56 68.79,-211.67 81.76,-439.47 155.84,-649.55 140.49,-399.52 493.45,-698.24 886.09,-856.46 392.64,-158.22 824.44,-191.82 1248.03,-191.82 373.26,0.02 749.04,25.83 1118.61,74.35 404.28,52.92 812.27,139.96 1167.6,340.52 355.34,200.56 654.84,529.17 737.66,929.75 117.21,566.47 -208.23,1169.71 -33.6,1719.78 87.84,278.08 291.04,502.71 432.06,757.24 141.79,263.02 216.44,558.08 216.44,857.11 0,184.97 -28.63,369.06 -84.34,545.22 -168.8,523.08 -582.08,1052.24 -370.42,1559.44 134.67,322.53 478.63,494.77 718.34,750.36 21.33,22.91 41.26,45.84 59.78,68.77z"/>
  <path class="fil4" d="M19340.94 7942.34l0 78.05 -2655.35 510.12c-771.26,148.17 -1553.62,297.13 -2337.05,240.24 -567.53,-41.28 -1097.75,-209.55 -1643.05,-357.19 -308.24,-83.61 -635,-116.95 -739.51,-461.96 -144.2,-476.25 90.49,-1181.35 145.79,-1663.95 52.92,-473.6 867.57,-2202.65 773.38,-2670.69l4868.31 211.67c32.81,258.5 1319.47,1556 1239.3,1803.92 -168.8,523.08 -582.08,1052.24 -370.42,1559.44 134.93,322.52 478.89,494.76 718.6,750.35z"/>
  <path class="fil5" d="M14366.8 6633.19c28.84,163.78 44.19,343.96 -39.42,486.83 -111.39,191.56 -354.28,252.68 -571.5,296.07l-754.06 150.81c-51.33,10.32 -105.83,21.96 -144.2,57.15 -45.24,40.48 -60.59,104.51 -67.2,164.84 -30.43,273.05 66.15,542.13 154.25,802.22 178.06,526.79 327.55,1064.67 552.71,1572.94 225.16,508.27 534.2,993.51 975.26,1333.22 441.06,339.72 1024.72,520.7 1564.74,387.88 470.43,-115.62 856.19,-447.68 1188.76,-799.84 274.37,-291.04 531.02,-608.54 664.1,-986.1 91.81,-259.29 121.71,-535.52 150.55,-809.1 44.62,-419.45 89.25,-838.9 133.88,-1258.34 20.9,-196.85 34.66,-418.31 -93.13,-569.38 -56.09,-66.41 -132.29,-110.6 -210.08,-151.61 -289.46,-153.72 -594.26,-280.72 -863.61,-465.93 -269.35,-185.21 -508.26,-440.27 -590.02,-756.71 -48.95,-189.97 -40.22,-396.88 -123.56,-573.88 -93.13,-198.44 -291.04,-332.85 -502.71,-391.85 -211.67,-59 -434.98,-51.06 -652.99,-26.46 -218.01,24.6 -1058.32,87.58 -1148.55,333.38 -48.42,132.29 152.4,416.19 200.03,546.36 78.32,213.19 137.46,433.93 176.58,657.46l0.16 0.03z"/>
  <path class="fil4" d="M14366.8 6633.19c28.84,163.78 44.19,343.96 -39.42,486.83 -111.39,191.56 -354.28,252.68 -571.5,296.07l-754.06 150.81c-51.33,10.32 -105.83,21.96 -144.2,57.15 -45.24,40.48 -60.59,104.51 -67.2,164.84 -30.43,273.05 66.15,542.13 154.25,802.22 178.06,526.79 327.55,1064.67 552.71,1572.94 225.16,508.27 534.2,993.51 975.26,1333.22 441.06,339.72 1024.72,520.7 1564.74,387.88 470.43,-115.62 856.19,-447.68 1188.76,-799.84 274.37,-291.04 531.02,-608.54 664.1,-986.1 91.81,-259.29 121.71,-535.52 150.55,-809.1 44.62,-419.45 89.25,-838.9 133.88,-1258.34 20.9,-196.85 34.66,-418.31 -93.13,-569.38 -56.09,-66.41 -132.29,-110.6 -210.08,-151.61 -289.46,-153.72 -594.26,-280.72 -863.61,-465.93 -269.35,-185.21 -508.26,-440.27 -590.02,-756.71 -48.95,-189.97 -40.22,-396.88 -123.56,-573.88 -93.13,-198.44 -291.04,-332.85 -502.71,-391.85 -211.67,-59 -434.98,-51.06 -652.99,-26.46 -218.01,24.6 -1058.32,87.58 -1148.55,333.38 -48.42,132.29 152.4,416.19 200.03,546.36 78.32,213.19 137.46,433.93 176.58,657.46l0.16 0.03z"/>
  <path class="fil6" d="M16181.57 9510.25l442.12 -936.1c207.17,-438.68 418.84,-899.58 396.88,-1384.03 -4.23,-96.31 -5.29,-216.69 79.38,-260.35 27.2,-11.11 56.41,-16.85 85.82,-16.85 10.12,0 20.31,0.69 30.32,2.02 464.49,23.71 925.13,117.21 1362.81,275.54 84.93,30.69 171.98,66.15 231.51,133.88 59.53,67.73 83.61,158.75 103.98,246.06 68.78,294.37 120.53,595.22 151.23,896.07 79.38,746.65 39.95,1499.91 0,2248.95l-117.48 2286.78c0.45,1.63 0.48,3.1 0.48,4.51 0,31 -6.59,61.66 -19.34,89.92 -29.1,52.92 -94.72,70.64 -153.72,80.7 -227.28,38.89 -459.58,30.96 -689.77,22.23 -1619.24,-61.38 -3246.95,-155.58 -4855.61,40.75 7.21,-237.94 3.41,-476.07 -11.4,-714.37 -63.76,-1028.95 -330.46,-2032.78 -592.4,-3029.73 -152.66,-582.08 -300.57,-1217.07 -54.77,-1765.55 36.14,-86.5 88.23,-165.83 153.24,-233.34 104.51,-102.39 247.12,-156.37 388.41,-195 211.22,-57.44 429.72,-86.71 648.82,-86.71 33.2,0 66.7,0.91 99.59,2.11l1668.19 3631.92c76.2,166.16 138.91,341.05 214.84,505.09 68.26,-283.37 -13.76,-615.42 68.26,-922.6 88.42,-318.92 227.59,-623.99 368.61,-921.91z"/>
  <path class="fil7" d="M16007.21 12009.23c298.45,18.79 588.43,-134.14 793.75,-350.31 205.32,-216.17 340.78,-490.27 455.35,-767.29 164.62,-394.55 295.8,-803.81 390.95,-1220.45 79.38,-354.54 135.73,-721.52 80.96,-1080.81 -75.67,-496.09 -356.39,-946.94 -404.28,-1446.47 -8.2,-87.31 -2.91,-189.44 67.2,-242.09 43.39,-32.54 100.54,-37.04 154.52,-40.22 499,-29.63 1047.21,-24.08 1433.77,292.63 117.74,96.31 213.25,216.69 328.35,315.91 274.11,238.13 661.46,359.3 837.41,675.48 61.38,110.07 90.75,234.69 133.61,353.22 101.07,280.46 275.96,527.05 449.79,769.67 -168.54,711.2 -362.21,1422.92 -530.75,2134.12 -98.69,417.25 -198.17,836.08 -353.22,1235.59 -101.6,261.94 -229.39,529.17 -198.17,809.63 12.44,110.33 49.21,215.9 81.23,322.26 103.82,346 157.18,705.98 157.18,1066.84 0,28.04 -0.45,57.89 -0.9,85.47l-7549.58 18.52c361.69,-518.58 467.78,-1154.63 431.01,-1785.66 -17.73,-302.42 -85.99,-606.69 -238.13,-868.36 -239.71,-410.1 -661.46,-677.33 -1077.11,-906.2 -291.04,-158.75 -603.51,734.48 -918.1,632.09 50.8,-359.3 74.08,-1746.24 52.92,-2107.93 -6.88,-118.53 -17.46,-240.24 19.05,-353.48 24.87,-77.52 70.64,-146.84 101.6,-222.25 124.09,-301.89 5.82,-687.92 206.38,-944.83 138.64,-178.59 381.79,-229.39 579.44,-339.46 202.94,-113.24 359.83,-291.04 536.58,-442.91 346.23,-294.45 770.7,-484.11 1221.08,-545.58 131.44,207.26 211.63,443.71 233.23,688.04 13.49,153.72 3.7,309.56 25.14,462.49 29.37,207.17 115.09,401.64 200.03,593.2 353.75,798.78 708.82,1599.93 1157.01,2350.02 126.74,211.67 264.58,423.33 448.2,588.17 183.62,164.84 447.93,282.6 694.52,270.96z"/>
  <circle class="fil5" cx="15607.95" cy="4305.13" r="2268"/>
  <path class="fil1" d="M14417.87 7327.45c62.18,-586.85 -181.77,-1160.98 -457.99,-1682.48 -132.29,-249.24 -274.11,-497.68 -340.52,-771.53 -66.41,-273.85 -47.36,-583.94 122.5,-809.1 144.46,-191.56 373.59,-295.01 585.52,-407.46 598.22,-317.5 1145.11,-784.23 1408.1,-1408.37 -148.7,80.96 -110.07,322.53 21.17,429.15 131.24,106.62 310.09,127.26 471.49,178.06 588.43,185.21 941.39,772.05 1224.48,1320.26 46.3,89.43 93.4,183.89 92.87,284.69 -0.53,100.8 -46.57,190.24 -94.72,275.96 -139.7,248.71 -310.62,487.63 -374.12,765.7 -72.76,317.5 3.97,651.4 103.72,962.82 105.83,331.26 246.33,665.16 500.33,902.76 254,237.6 647.96,355.6 960.44,202.14 -311.94,-536.31 -635,-1135.58 -513.29,-1743.59 58.74,-291.04 216.69,-555.63 283.9,-845.08 128.06,-552.19 -85.2,-1120.24 -294.48,-1647.29l-625.48 -1572.94c-95.51,-240.51 -204.26,-497.15 -423.33,-633.41 -148.17,-91.81 -327.55,-115.62 -501.12,-132.29 -558.8,-49.74 -1137.7,-33.34 -1657.87,174.63 -947.74,378.62 -1541.98,1312.06 -2013.47,2217.46 -141.29,271.2 -280.72,559.33 -274.9,865.19 3.18,167.75 50.01,330.99 88.11,494.51 155.05,665.69 163.51,1355.45 171.45,2038.87 6.09,524.4 -21.17,1018.64 -250.56,1496.21 314.33,62.44 770.2,230.98 1081.34,107.69 405.59,-160.32 655.35,-654.3 706.42,-1062.54z"/>
  <g id="_2482625108128">
   <path class="fil8" d="M12879.33 6775.01c1.06,-74.61 1.05,-149.93 0,-225.95 -7.94,-683.42 -16.4,-1373.18 -171.45,-2038.87 -34.41,-129.26 -62.14,-261.58 -81.04,-393.91 -4.65,40.56 -7.16,81.51 -7.16,122.21 0,5.02 0.13,10.43 0.13,15.33 3.18,167.75 50.01,330.99 88.11,494.51 154.21,661.7 163.73,1347.23 171.41,2026.68z"/>
   <path class="fil4" d="M18411.73 4981.41c25.84,-115.04 38.94,-232.9 38.94,-350.95 0,-40.07 -1.56,-80.72 -4.5,-120.6 -5.09,78.44 -16.93,157.02 -34.51,233.43 -67.2,291.04 -225.16,553.24 -283.9,845.08 -17.38,89.09 -26.28,179.82 -26.28,270.56 0,40.06 1.71,80.63 5.14,120.52 4.04,-51.22 11.33,-102.72 21.15,-153.04 58.8,-291.76 216.76,-555.02 283.96,-845z"/>
   <path class="fil4" d="M17524.85 4339.27c12.88,-37.5 19.91,-77.02 20.65,-116.68 0,-100.81 -46.57,-195.26 -92.87,-284.69 -283.1,-548.22 -635,-1134.52 -1224.48,-1320.26 -161.4,-50.8 -339.99,-71.44 -471.49,-178.06 -68.33,-58.82 -110.15,-142.86 -115.88,-232.85 -286.81,526.52 -779.46,929.22 -1313.38,1212.05 -211.67,112.45 -441.06,215.9 -585.52,407.46 -135.73,179.92 -175.15,414.07 -151.61,640.56 13.22,-145.26 65.82,-284.47 151.65,-402.43 144.46,-191.56 373.59,-295.01 585.52,-407.46 533.93,-282.84 1026.57,-685.54 1313.38,-1212.05 5.69,89.98 47.51,174.02 115.83,232.84 132.29,105.83 310.09,127.26 471.49,178.06 588.43,185.21 941.39,772.05 1224.48,1320.26 28.6,52.24 52.91,106.96 72.25,163.22l-0.02 0.03z"/>
   <path class="fil4" d="M17680.69 7129.81c-254,-238.13 -393.96,-571.5 -500.33,-902.76 -63.49,-185.77 -106.56,-379.11 -126.98,-574.37 -24.61,271.73 42.86,549.8 127,812.54 105.83,331.26 246.33,665.16 500.33,902.76 254,237.6 647.96,355.6 960.44,202.14 -37.57,-64.29 -74.88,-129.65 -111.92,-195.53 -290.27,81.71 -623.64,-34.71 -848.54,-244.78z"/>
   <path class="fil4" d="M14417.87 7089.33c-51.06,408.25 -300.83,902.23 -707.5,1063.62 -282.31,111.92 -684.21,-16.67 -990.86,-87.84 -26.35,74 -56.86,147.6 -90.43,218.39 314.33,62.44 770.2,230.98 1081.34,107.69 406.66,-161.4 656.43,-655.37 707.5,-1063.62 6.27,-62.61 9.64,-125.68 9.64,-188.52 0,-39.5 -1.35,-79.67 -3.82,-118.95 -1.65,22.93 -4.03,46.22 -5.88,69.23z"/>
  </g>
  <path class="fil6" d="M17623.8 13649.37c-408.78,-64.82 -823.65,-189.97 -1228.98,-105.83 -234.95,48.68 -449.79,165.63 -645.05,306.92 107.42,85.99 232.83,162.72 301.1,282.31 42.37,82.67 74.25,170.44 94.74,261.07 42.86,158.75 85.99,320.68 92.6,485.78 6.61,165.1 -26.46,337.08 -124.88,470.16 515.41,50.8 1014.93,-76.2 1517.64,-200.29 57.41,-9.98 112.22,-32.16 160.58,-64.78 79.38,-62.44 102.66,-173.57 103.19,-274.9 0,-180.98 -50.8,-357.45 -102.39,-531.02 -61.39,-208.2 -106.9,-422.51 -168.55,-629.42z"/>
  <path class="fil9" d="M20383.93 9186.67c202.94,26.46 360.36,190.24 476.25,358.51 325.17,468.31 465.4,1036.1 621.51,1584.58 194.02,682.09 422.18,1353.42 684.47,2013.99 56.1,151.9 125.3,301.03 205.23,442.02 65.35,109.27 144.73,214.31 173.57,338.4 69.85,300.04 -177.54,582.08 -435.5,749.3 -137.42,92.42 -287.65,165.02 -445.67,214.67 -153.99,46.04 -314.59,63.5 -474.13,80.96l-1468.69 158.75c-676.01,73.55 -1358.1,147.11 -2034.37,76.2 -42.6,-148.17 41.01,-252.94 34.93,-407.19 -4.23,-110.33 -52.92,-212.99 -96.31,-314.59 -79.79,-180.81 -133.06,-373.03 -156.87,-569.18 -7.67,-72.23 -10.32,-146.31 -37.84,-213.52 -27.52,-67.21 -86.52,-127.53 -158.75,-132.29 396.88,-39.42 698.24,-114.3 1095.1,-153.99 147.37,-14.82 300.57,-31.49 426.24,-109.8 155.84,-97.1 243.15,-272.26 312.47,-442.12 171.71,-420.69 282.31,-884.24 192.09,-1329.79 -74.08,-365.39 -280.72,-705.64 -279.66,-1078.43 0,-221.99 75.67,-437.09 165.1,-640.29 94.72,-214.84 218.28,-434.45 426.24,-543.45 207.96,-109 539.91,-114.49 774.6,-82.74z"/>
  <path class="fil5" d="M11186.79 8842.98c96.04,-228.07 193.68,-463.55 196.32,-710.94 2.91,-267.49 -105.83,-521.49 -188.91,-775.49 -102.34,-309.89 -171.87,-632.36 -204.17,-957.56 -1.83,-9.23 -2.86,-18.73 -2.86,-28.21 0,-22.21 5.62,-44.11 16.28,-63.57 21.96,-30.96 64.29,-37.31 101.6,-45.51 183.09,-41.8 321.47,-189.71 435.77,-338.67 176.58,-229.17 327.09,-480.76 445.86,-745.05 87.58,-195 206.11,-432.86 419.89,-434.71 -86.32,403.27 -192.92,804.51 -318.77,1196.85 223.57,-57.15 436.03,-140.23 659.61,-197.38 37.79,-11.75 78.01,-17.97 118.33,-17.97 5.5,0 11.04,0.14 16.49,0.34 133.88,14.02 215.9,195.26 138.11,305.06 109.27,128.06 291.04,162.45 433.92,250.3 142.88,87.85 245.53,305.33 118.53,415.66 -24.87,21.43 -56.36,36.51 -74.35,64.03 -61.38,94.72 88.9,203.46 76.46,315.65 -10.05,91.81 -127.79,134.67 -216.96,110.33 -89.17,-24.34 -158.75,-91.02 -238.13,-139.96 -79.38,-48.94 -183.09,-79.38 -260.09,-28.58 -20.64,248.97 -42.86,502.71 -150.55,729.46 -39.42,82.81 -89.96,160.34 -121.71,246.33 -30.11,93.63 -49.23,191 -56.05,289.26l-96.06 878.09c-458.25,91.81 -869.15,-45.51 -1248.55,-317.77z"/>
  <path class="fil6" d="M11074.88 9630.11l-84.4 -571.24c-7.99,-46.4 -12.53,-93.68 -13.43,-140.73 0,-132.29 58.21,-258.5 114.56,-378.88 466.99,218.02 971.81,295.54 1486.95,295.8 68,0 145.52,-6.35 187.85,-59.53 87.58,100.81 90.22,263 52.92,391.05 -37.3,128.05 -109.01,243.42 -156.63,368.3 -24.08,63.24 -43.66,132.29 -89.69,180.98 -71.44,76.99 -187.33,90.22 -292.63,89.69 -110.92,-0.68 -221.47,-11.42 -330.19,-31.52 -282.13,-52.38 -593.28,-194.46 -875.32,-143.92z"/>
  <path class="fil9" d="M12816.62 9606.82c-362.48,-41.27 -722.58,-99.48 -1080.28,-174.62 -175.42,-36.78 -352.43,-77.79 -531.28,-70.64 -116.42,4.76 -241.56,28.05 -343.96,-29.63 99.75,339.46 105.83,697.18 -13.49,1030.28 -70.64,198.44 -178.33,383.38 -230.19,587.64 -107.95,427.3 40.22,893.23 -94.72,1312.85 -14.23,54.8 -42.35,105.15 -81.5,146.05 -41.28,37.84 -97.63,57.41 -135.73,98.43 -56.09,60.33 -59.53,151.08 -59.8,233.36l-2.38 728.93c-1.59,464.08 4.5,956.2 249.5,1349.37 279.4,449.79 867.57,682.89 1379.53,546.1 136.09,-34.67 263.8,-97.39 374.72,-183.41 177.8,-141.29 291.04,-345.55 401.9,-544.51 132.29,-238.13 264.58,-481.54 307.18,-749.56 30.16,-189.71 13.23,-383.38 -8.47,-574.15 -119.59,-1058.32 -379.15,-2107.66 -323.32,-3169.95 8.34,-194.08 75.54,-381.38 192.36,-536.55l-0.07 0z"/>
  <path class="fil5" d="M14331.61 13998.89c-183.89,10.58 -369.09,21.17 -552.19,0 -132.29,-15.88 -261.41,-48.42 -392.64,-70.64 -132.36,-21.15 -266.92,-32.21 -401.18,-32.21 -594.78,0 -1171.12,211.06 -1625.19,595.09 -101.6,86.78 -204.26,219.87 -148.17,341.31 60.33,130.7 244.74,127 386.82,102.66 -153.25,73.23 -288.98,179.4 -396.85,310.44 -39.69,48.42 -77.26,105.83 -69.59,168.54 16.14,130.97 193.94,154.78 325.44,143.4 -42.86,46.04 -14.02,127.53 40.48,158.75 54.5,31.22 122.24,24.87 183.89,13.49 136,-24.75 268.13,-70.51 390.45,-135.08 -24.87,64.82 18.26,140.76 79.38,173.04 61.12,32.28 135.47,29.9 203.99,18.79 323.32,-52.92 593.2,-277.81 908.58,-366.18 504.3,-141.02 1031.87,83.87 1556,99.75 164.04,5.03 332.32,-11.64 481.81,-79.38 183.36,-83.34 331.26,-239.71 524.93,-295.28 215.11,-61.38 461.96,9.26 658.81,-96.84 143.14,-76.99 14.02,-670.45 -22.49,-784.75 -66.94,-209.02 -134.14,-347.66 -357.19,-368.83 -564.35,-55.35 -1206.49,71.12 -1775.08,103.93z"/>
  <path class="fil6" d="M15739.45 13836.96c0,0 854.34,723.11 361.42,1512.08l952.5 -328.88 0 -690.29c0,-32.81 -361.69,-525.73 -361.69,-525.73l-427.3 -65.88 -524.93 98.69z"/>
  <path class="fil10" d="M6794.2 13792.25l320.41 0c365.26,-0.01 661.47,296.2 661.47,661.45l0 981.87 -1643.32 0.01 0 -981.87c0,-365.26 296.21,-661.47 661.46,-661.47l-0.01 0.01z"/>
  <path class="fil4" d="M6794.2 13792.25l320.41 0c365.26,-0.01 661.47,296.2 661.47,661.45l0 981.87 -1643.32 0.01 0 -981.87c0,-365.26 296.21,-661.47 661.46,-661.47l-0.01 0.01z"/>
  <circle class="fil10" cx="6888.66" cy="14022.17" r="131.5"/>
  <circle class="fil10" cx="6888.66" cy="13857.87" r="131.5"/>
  <circle class="fil10" cx="6888.66" cy="13693.56" r="131.5"/>
  <circle class="fil10" cx="6888.66" cy="13529.25" r="131.5"/>
  <circle class="fil10" cx="6888.66" cy="13364.95" r="131.5"/>
  <circle class="fil10" cx="6888.66" cy="13200.64" r="131.5"/>
  <circle class="fil10" cx="6888.66" cy="13036.08" r="131.5"/>
  <circle class="fil10" cx="7086.04" cy="13101.96" r="131.5"/>
  <circle class="fil10" cx="7217.53" cy="13036.08" r="131.5"/>
  <circle class="fil10" cx="7349.03" cy="12970.46" r="131.5"/>
  <circle class="fil10" cx="6888.66" cy="12871.77" r="131.5"/>
  <circle class="fil10" cx="6888.66" cy="12707.47" r="131.5"/>
  <circle class="fil10" cx="6888.66" cy="12543.16" r="131.5"/>
  <circle class="fil10" cx="6888.66" cy="12378.85" r="131.5"/>
  <path class="fil11" d="M7434.75 11954.73c-32.81,4.76 -65.62,8.2 -98.43,10.32 30.45,-26.49 58.96,-55.73 84.69,-86.82 -18.18,-55.14 -45.04,-107.38 -79.36,-154.25 -32.56,18.29 -68.67,29.68 -105.84,33.34 -32.54,4.76 -65.35,8.2 -98.16,10.58 43.13,-35.19 83.34,-88.11 125.68,-132.29 -102.65,-93.02 -236.37,-144.61 -374.93,-144.61 -308.27,0 -558.27,250 -558.27,558.27 0,308.27 250,558.27 558.27,558.27 308.27,0 558.27,-250 558.27,-558.27 0,-0.2 0,-0.41 0,-0.61 0.01,-0.05 0.01,-0.18 0.01,-0.18 0,-32.13 -2.87,-64.26 -8.48,-95.86l-3.45 2.11z"/>
  <path class="fil11" d="M7873.16 12607.98c-33.49,20.59 -71.41,33.2 -110.59,36.75 -32.54,4.76 -65.35,8.47 -98.16,10.58 34.79,-31.09 67.47,-65.19 97.34,-101.05 -27.03,-7.03 -54.99,-10.65 -83,-10.65 -181.75,0 -329.14,147.39 -329.14,329.14 0,181.75 147.39,329.14 329.14,329.14 181.75,0 329.14,-147.39 329.14,-329.14 0,-104.92 -50.07,-203.61 -134.69,-265.57l-0.04 0.8z"/>
  <circle class="fil10" cx="6691.55" cy="13101.96" r="131.5"/>
  <circle class="fil10" cx="6560.05" cy="13036.08" r="131.5"/>
  <circle class="fil10" cx="6428.55" cy="12970.46" r="131.5"/>
  <path class="fil11" d="M5904.41 12607.98c33.53,20.59 71.45,33.2 110.63,36.75 32.54,4.76 65.35,8.47 98.16,10.58 -34.91,-31.06 -67.64,-65.15 -97.38,-101.08 27.06,-7 55.03,-10.62 83.04,-10.62 181.75,0 329.14,147.39 329.14,329.14 0,181.75 -147.39,329.14 -329.14,329.14 -181.75,0 -329.14,-147.39 -329.14,-329.14 0,-104.92 50.07,-203.61 134.69,-265.57l0 0.8z"/>
  <path class="fil10" d="M6794.2 13889.62l320.41 0c365.26,-0.02 661.47,296.19 661.47,661.44l0 869.69c0,61.95 -50.24,112.18 -112.18,112.18l-1419.76 0.01c-61.94,-0.01 -112.17,-50.24 -112.17,-112.19l-0.01 -869.68c0.01,-0.01 0.01,-0.01 0.01,-0.01 0,-365.25 296.21,-661.46 661.46,-661.46 0.24,0 0.56,0 0.81,0l-0.03 0.02z"/>
  <g id="_2482625152480">
   <path class="fil4" d="M7443.75 11990.71c-13.23,14.18 -27.46,27.68 -42.31,40.21 15.08,0 29.9,-2.38 44.98,-3.97 -0.56,-12.16 -1.35,-24.33 -2.67,-36.24z"/>
   <path class="fil4" d="M7204.03 11833.55c33.07,-2.12 65.62,-5.56 98.43,-10.32 29.41,-3.74 58.25,-11.61 85.46,-23.32 -13.28,-26.34 -28.79,-51.9 -45.99,-75.9 -16.49,9.98 -34.34,17.58 -52.95,22.47 -25.82,31.17 -54.46,60.47 -84.96,87.06l0.01 0.01z"/>
   <path class="fil4" d="M6395.74 12115.86c0.02,-0.36 0.02,-0.77 0.02,-1.11 0,-307.98 249.76,-557.74 557.74,-557.74 107.11,0 212.11,30.91 302.12,88.93l8.47 -9c-102.11,-90.89 -234.27,-141.19 -371.06,-141.19 -308.27,0 -558.27,250 -558.27,558.27 0,162.14 70.61,316.45 193.29,422.43 -85.36,-100.38 -132.3,-228.05 -132.3,-359.85 0,-0.2 0,-0.54 0,-0.75l-0.01 0.01z"/>
  </g>
  <g id="_2482625153536">
   <path class="fil4" d="M7664.41 12720.96c32.81,-2.12 65.62,-5.56 98.16,-10.32 39.21,-3.66 77.14,-16.38 110.62,-37.07 75.07,55.31 123.25,140.07 132.28,232.86 1.23,-11.07 1.86,-22.24 1.86,-33.38 0,-0.4 0,-0.88 0,-1.29 0,-0.51 0,-1.07 0,-1.59 0,-103.65 -49.07,-201.22 -132.28,-263.01 -33.53,20.62 -71.45,33.23 -110.63,36.78l-26.46 3.44c-22.53,26.34 -47.2,51.01 -73.51,73.54l-0.04 0.04z"/>
   <path class="fil4" d="M7677.64 12608.78c10.93,0.09 21.96,0.91 32.82,2.36 17.2,-18.26 34.13,-37.84 51.33,-56.89 -27.54,-7.37 -56.1,-11.1 -84.66,-11.1 -181.16,0 -328.08,146.92 -328.08,328.08 0,0.16 0,0.36 0,0.52 0,11.11 0,21.96 1.59,32.81 16.84,-167.9 158.18,-295.8 326.96,-295.8 0,0 0.04,0 0.04,0l0 0.02z"/>
  </g>
  <g id="_2482625159296">
   <path class="fil4" d="M6113.17 12720.96c-32.81,-2.12 -65.62,-5.56 -98.16,-10.32 -39.18,-3.66 -77.12,-16.38 -110.59,-37.07 -75.06,55.31 -123.24,140.07 -132.27,232.86 -1.25,-11.07 -1.87,-22.24 -1.87,-33.38 0,-0.4 0,-0.88 0,-1.29 0,-0.51 0,-1.07 0,-1.59 0,-103.65 49.07,-201.22 132.28,-263.01 33.53,20.62 71.45,33.23 110.63,36.78l26.46 3.44c22.38,26.48 47.07,51.17 73.53,73.57l-0.01 0.01z"/>
   <path class="fil4" d="M6099.94 12608.78c-10.98,0.1 -22.12,0.94 -33.05,2.37 -16.93,-18.26 -33.87,-37.84 -51.06,-56.89 27.54,-7.38 56.1,-11.11 84.66,-11.11 181.16,0 328.08,146.92 328.08,328.08 0,0.16 0,0.36 0,0.52 0,11.11 0,21.96 -1.59,32.81 -16.85,-167.9 -158.19,-295.8 -326.97,-295.8 0,0 -0.04,0 -0.04,0l-0.03 0.02z"/>
  </g>
  <path class="fil11" d="M5208.29 15850.96l-2584.97 0c-60.61,-0.02 -109.78,-49.19 -109.78,-109.82l-0.02 -1223.4c0.02,-0.02 0.02,-0.05 0.02,-0.05 0,-60.63 49.17,-109.8 109.8,-109.8 16.29,0 32.39,3.63 47.09,10.62 742.69,352.43 1542.78,473.34 2487.07,5.56 15.14,-7.47 31.81,-11.37 48.69,-11.37 60.56,0 109.77,48.95 110.07,109.52l0 1217.07c0,0.61 0.01,1.25 0.01,1.87 0,59.92 -48.06,108.8 -107.96,109.79l-0.02 0.01z"/>
  <path class="fil4" d="M5208.29 15850.96l-2584.97 0c-60.61,-0.02 -109.78,-49.19 -109.78,-109.82l-0.02 -1223.4c0.02,-0.02 0.02,-0.05 0.02,-0.05 0,-60.63 49.17,-109.8 109.8,-109.8 16.29,0 32.39,3.63 47.09,10.62 742.69,352.43 1542.78,473.34 2487.07,5.56 15.14,-7.47 31.81,-11.37 48.69,-11.37 60.56,0 109.77,48.95 110.07,109.52l0 1217.07c0,0.61 0.01,1.25 0.01,1.87 0,59.92 -48.06,108.8 -107.96,109.79l-0.02 0.01z"/>
  <ellipse class="fil10" cx="3897.82" cy="14720.67" rx="152.93" ry="200.29"/>
  <ellipse class="fil10" cx="3897.82" cy="14475.93" rx="152.93" ry="200.29"/>
  <ellipse class="fil10" cx="3897.82" cy="14230.93" rx="152.93" ry="200.29"/>
  <ellipse class="fil10" cx="3897.82" cy="13986.19" rx="152.93" ry="200.29"/>
  <ellipse class="fil10" cx="3897.82" cy="13741.18" rx="152.93" ry="200.29"/>
  <ellipse class="fil10" cx="3897.82" cy="13496.18" rx="152.93" ry="200.29"/>
  <ellipse class="fil10" cx="3897.82" cy="13251.44" rx="152.93" ry="200.29"/>
  <path class="fil11" d="M4471.44 11575.58c20.61,-26.65 39.9,-54.78 56.91,-83.86l-402.17 -66.15 434.98 3.18c44.38,-96.22 67.47,-201.21 67.47,-307.28 0,-94.16 -18.17,-187.61 -53.44,-274.88l-583.41 302.68 538.16 -396.88c-130.95,-226.47 -372.98,-366.1 -634.7,-366.1 -404.85,0 -733.16,328.32 -733.16,733.16 0,164.34 55.32,324.02 156.82,453.18 -32.62,41.32 -60.72,86.23 -83.57,133.67l521.73 274.09 -555.62 -187.85c-25.39,75.49 -38.47,154.79 -38.47,234.54 0,164.33 55.29,324.19 156.72,453.4 -101.54,129.11 -156.86,288.88 -156.86,453.22 0,404.85 328.31,733.16 733.16,733.16 404.84,0 733.16,-328.31 733.16,-733.16 0,-164.34 -55.32,-324.11 -156.91,-453.27 101.56,-129.11 156.88,-288.88 156.88,-453.22 0,-164.34 -55.32,-324.11 -156.91,-453.27l-0.77 1.64z"/>
  <path class="fil4" d="M3161.48 12028.81c0.02,0.25 0.02,0.78 0.02,1.05 0,163.98 55.43,323.51 156.94,452.2 -101.62,129.12 -156.94,288.89 -156.94,453.23 0,404.85 328.31,733.16 733.16,733.16 404.84,0 733.16,-328.31 733.16,-733.16 0,-164.34 -55.32,-324.11 -156.91,-453.27 98.16,-124.6 -1309.42,-535.49 -1309.42,-453.21z"/>
  <path class="fil11" d="M5208.29 15915.78l-2584.97 0c-60.61,-0.02 -109.78,-49.19 -109.78,-109.82l-0.02 -1288.22c0.02,-0.02 0.02,-0.05 0.02,-0.05 0,-60.63 49.17,-109.8 109.8,-109.8 16.29,0 32.39,3.63 47.09,10.62 742.69,352.43 1331.64,763.32 2487.07,5.56 68.53,-44.98 158.75,16.4 158.75,98.16l0 1283.22c0.01,0.16 0.01,0.36 0.01,0.53 0,59.91 -48.06,108.78 -107.95,109.79l-0.02 0.01z"/>
  <polygon class="fil12" points="24389.96,15551.45 20576.28,16056.01 20385.52,16081.15 18521.01,15085.27 18521.01,14852.17 24347.63,14216.64 "/>
  <polygon class="fil13" points="19601.55,15191.1 23733,14704 23690.67,15466.79 20472.56,15702.79 "/>
  <path class="fil3" d="M20576.28 15805.45l0 250.3 -190.76 26.46 -1864.78 -996.95 0 -233.1 1779.84 952.5c0,0 233.37,21.96 275.7,0.79z"/>
  <path class="fil10" d="M21308.37 11832.75l-856.19 3970.06c-3.79,17.63 -5.77,35.7 -5.77,53.77 0,139.96 113.51,253.47 253.47,253.47 11.11,0 22.31,-0.74 33.3,-2.2l5416.77 -717c96.28,-12.69 176.86,-79.32 207.44,-171.47l1168.65 -3524.23c8.47,-25.68 12.81,-52.6 12.81,-79.64 0,-140.26 -113.74,-254 -254,-254 -3.91,0 -7.88,0.12 -11.75,0.28l-5728.73 272c-114.53,5.41 -211.28,86.99 -235.99,198.94l-0.02 0.02z"/>
  <ellipse class="fil6" transform="matrix(0.104528 -0.994522 0.994522 0.104528 24137.7 13281.9)" rx="230.18" ry="147.9"/>
 </g>
</svg>
